# xmcd CD database file
#
# Track frame offsets:
#	150
#	13401
#	23013
#	47141
#	59224
#	77822
#	90371
#	101632
#	114636
#	126855
#	145012
#	159208
#
# Disc length: 2243 seconds
#
# Revision: 1
# Processed by: cddbd v1.5.2PL0 Copyright (c) Steve Scherf et al.
# Submitted via: CDex 1.51
#
DISCID=9b08c10c
DTITLE=Noël en Jazz - Cécil Recchia (chant), Pierre Carrié, Oliver Degabriele, Lionel Boccara, Landser
DYEAR=2008
DGENRE=Jazz
TTITLE0=Bonjour Nöel
TTITLE1=Glory Alleluia
TTITLE2=Petit Papa Nöel
TTITLE3=Entre le boeuf et l'âne gris
TTITLE4=Les anges dans nos campagnes
TTITLE5=Douce nuit
TTITLE6=Noël blanc
TTITLE7=La marche des Rois Mages
TTITLE8=Vive le vent
TTITLE9=Il est né le Divin enfant
TTITLE10=We wish you a merry Christmas
TTITLE11=Mon beau sapin
EXTD=YEAR: 2008
EXTT0=
EXTT1=
EXTT2=
EXTT3=
EXTT4=
EXTT5=
EXTT6=
EXTT7=
EXTT8=
EXTT9=
EXTT10=
EXTT11=
PLAYORDER=
